<svg width="324" height="36" viewBox="0 0 324 36" fill="none" xmlns="http://www.w3.org/2000/svg">
<path d="M322.003 36H303.691C302.907 36 302.515 35.608 302.515 34.824V1.168C302.515 0.384003 302.907 -0.00799561 303.691 -0.00799561H322.003C322.75 -0.00799561 323.123 0.384003 323.123 1.168V4.976C323.123 5.76 322.75 6.152 322.003 6.152H310.299C309.851 6.152 309.627 6.35734 309.627 6.768V14.048C309.627 14.4587 309.851 14.664 310.299 14.664H319.875C320.659 14.664 321.051 15.056 321.051 15.84V19.648C321.051 20.432 320.659 20.824 319.875 20.824H310.299C309.851 20.824 309.627 21.0293 309.627 21.44V29.224C309.627 29.6347 309.851 29.84 310.299 29.84H322.003C322.75 29.84 323.123 30.232 323.123 31.016V34.824C323.123 35.608 322.75 36 322.003 36Z" fill="#FF7800"/>
<path d="M286.615 36H280.679C277.73 36 275.453 35.216 273.847 33.648C272.242 32.08 271.439 29.8213 271.439 26.872V9.12C271.439 6.17067 272.242 3.912 273.847 2.344C275.453 0.776005 277.73 -0.00799561 280.679 -0.00799561H286.615C289.527 -0.00799561 291.786 0.79467 293.391 2.4C294.997 3.968 295.799 6.208 295.799 9.12V10.8C295.799 11.6213 295.407 12.032 294.623 12.032H289.863C289.079 12.032 288.687 11.6213 288.687 10.8V9.456C288.687 8.26134 288.445 7.42134 287.959 6.936C287.474 6.41334 286.634 6.152 285.439 6.152H281.799C280.642 6.152 279.802 6.41334 279.279 6.936C278.794 7.42134 278.551 8.26134 278.551 9.456V26.536C278.551 27.7307 278.794 28.5893 279.279 29.112C279.802 29.5973 280.642 29.84 281.799 29.84H285.439C286.634 29.84 287.474 29.5973 287.959 29.112C288.445 28.5893 288.687 27.7307 288.687 26.536V23.008C288.687 22.5973 288.482 22.392 288.071 22.392H284.711C283.927 22.392 283.535 22 283.535 21.216V17.408C283.535 16.624 283.927 16.232 284.711 16.232H294.511C295.37 16.232 295.799 16.6613 295.799 17.52V26.872C295.799 29.784 294.997 32.0427 293.391 33.648C291.786 35.216 289.527 36 286.615 36Z" fill="#FF7800"/>
<path d="M244.58 36H239.204C238.532 36 238.308 35.608 238.532 34.824L247.38 1.168C247.641 0.384003 248.201 -0.00799561 249.06 -0.00799561H256.508C257.441 -0.00799561 258.001 0.384003 258.188 1.168L267.036 34.824C267.26 35.608 267.036 36 266.364 36H260.988C260.577 36 260.297 35.9253 260.148 35.776C259.998 35.5893 259.886 35.272 259.812 34.824L258.244 28.664H247.324L245.756 34.824C245.681 35.272 245.55 35.5893 245.364 35.776C245.214 35.9253 244.953 36 244.58 36ZM252.7 6.768L248.668 22.952H256.956L252.924 6.768H252.7Z" fill="#FF7800"/>
<path d="M216.139 36H211.379C210.595 36 210.203 35.608 210.203 34.824V1.168C210.203 0.384003 210.595 -0.00799561 211.379 -0.00799561H224.707C227.619 -0.00799561 229.896 0.79467 231.539 2.4C233.181 4.00534 234.003 6.264 234.003 9.176V13.544C234.003 17.7627 232.341 20.5627 229.019 21.944V22.168L235.011 34.656C235.347 35.552 235.029 36 234.059 36H229.523C228.851 36 228.365 35.9253 228.067 35.776C227.768 35.6267 227.525 35.3093 227.339 34.824L221.739 22.728H217.987C217.539 22.728 217.315 22.9333 217.315 23.344V34.824C217.315 35.608 216.923 36 216.139 36ZM217.931 17.016H223.419C224.613 17.016 225.491 16.7733 226.051 16.288C226.611 15.7653 226.891 14.944 226.891 13.824V9.456C226.891 8.29867 226.611 7.45867 226.051 6.936C225.491 6.41334 224.613 6.152 223.419 6.152H217.931C217.52 6.152 217.315 6.35734 217.315 6.768V16.4C217.315 16.8107 217.52 17.016 217.931 17.016Z" fill="#FF7800"/>
<path d="M182.783 36H177.407C176.735 36 176.511 35.608 176.735 34.824L185.583 1.168C185.844 0.384003 186.404 -0.00799561 187.263 -0.00799561H194.711C195.644 -0.00799561 196.204 0.384003 196.391 1.168L205.239 34.824C205.463 35.608 205.239 36 204.567 36H199.191C198.78 36 198.5 35.9253 198.351 35.776C198.201 35.5893 198.089 35.272 198.015 34.824L196.447 28.664H185.527L183.959 34.824C183.884 35.272 183.753 35.5893 183.567 35.776C183.417 35.9253 183.156 36 182.783 36ZM190.903 6.768L186.871 22.952H195.159L191.127 6.768H190.903Z" fill="#FF7800"/>
<path d="M163.131 36H157.195C154.246 36 151.968 35.216 150.363 33.648C148.758 32.08 147.955 29.8213 147.955 26.872V9.12C147.955 6.17067 148.758 3.912 150.363 2.344C151.968 0.776005 154.246 -0.00799561 157.195 -0.00799561H163.131C166.043 -0.00799561 168.302 0.79467 169.907 2.4C171.512 3.968 172.315 6.208 172.315 9.12V10.8C172.315 11.6213 171.923 12.032 171.139 12.032H166.379C165.595 12.032 165.203 11.6213 165.203 10.8V9.456C165.203 8.26134 164.96 7.42134 164.475 6.936C163.99 6.41334 163.15 6.152 161.955 6.152H158.315C157.158 6.152 156.318 6.41334 155.795 6.936C155.31 7.42134 155.067 8.26134 155.067 9.456V26.536C155.067 27.7307 155.31 28.5893 155.795 29.112C156.318 29.5973 157.158 29.84 158.315 29.84H161.955C163.15 29.84 163.99 29.5973 164.475 29.112C164.96 28.5893 165.203 27.7307 165.203 26.536V23.008C165.203 22.5973 164.998 22.392 164.587 22.392H161.227C160.443 22.392 160.051 22 160.051 21.216V17.408C160.051 16.624 160.443 16.232 161.227 16.232H171.027C171.886 16.232 172.315 16.6613 172.315 17.52V26.872C172.315 29.784 171.512 32.0427 169.907 33.648C168.302 35.216 166.043 36 163.131 36Z" fill="#FF7800"/>
<path d="M134.831 36H130.127C129.306 36 128.895 35.608 128.895 34.824V6.768C128.895 6.35734 128.69 6.152 128.279 6.152H121.895C121.111 6.152 120.719 5.76 120.719 4.976V1.168C120.719 0.384003 121.111 -0.00799561 121.895 -0.00799561H143.063C143.847 -0.00799561 144.239 0.384003 144.239 1.168V4.976C144.239 5.76 143.847 6.152 143.063 6.152H136.679C136.231 6.152 136.007 6.35734 136.007 6.768V34.824C136.007 35.608 135.615 36 134.831 36Z" fill="#FF7800"/>
<path d="M92.6034 26.816V25.696C92.6034 24.912 92.9954 24.52 93.7794 24.52H98.5394C99.3234 24.52 99.7154 24.912 99.7154 25.696V26.144C99.7154 27.5627 99.9954 28.5333 100.555 29.056C101.115 29.5787 102.142 29.84 103.635 29.84H106.267C107.723 29.84 108.731 29.56 109.291 29C109.889 28.44 110.187 27.3947 110.187 25.864V25.192C110.187 24.1093 109.739 23.288 108.843 22.728C107.985 22.1307 106.902 21.776 105.595 21.664C104.289 21.552 102.87 21.3467 101.339 21.048C99.846 20.712 98.446 20.3013 97.1394 19.816C95.8327 19.2933 94.7314 18.304 93.8354 16.848C92.9767 15.3547 92.5474 13.4507 92.5474 11.136V9.176C92.5474 6.264 93.3687 4.00534 95.0114 2.4C96.654 0.79467 98.9314 -0.00799561 101.843 -0.00799561H107.443C110.393 -0.00799561 112.689 0.79467 114.331 2.4C115.974 4.00534 116.795 6.264 116.795 9.176V10.24C116.795 11.024 116.403 11.416 115.619 11.416H110.859C110.075 11.416 109.683 11.024 109.683 10.24V9.904C109.683 8.44801 109.403 7.45867 108.843 6.936C108.283 6.41334 107.257 6.152 105.763 6.152H103.579C102.049 6.152 101.003 6.45067 100.443 7.048C99.9207 7.608 99.6594 8.728 99.6594 10.408V11.472C99.6594 13.2267 101.19 14.2347 104.251 14.496C107.425 14.7573 110.243 15.392 112.707 16.4C114.014 16.96 115.097 17.968 115.955 19.424C116.851 20.8427 117.299 22.672 117.299 24.912V26.816C117.299 29.728 116.478 31.9867 114.835 33.592C113.193 35.1973 110.915 36 108.003 36H101.899C98.9874 36 96.71 35.1973 95.0674 33.592C93.4247 31.9867 92.6034 29.728 92.6034 26.816Z" fill="#FF7800"/>
<path d="M72.401 29.84H76.377C77.5716 29.84 78.4116 29.5973 78.8969 29.112C79.4196 28.5893 79.681 27.7307 79.681 26.536V9.456C79.681 8.26134 79.4196 7.42134 78.8969 6.936C78.4116 6.41334 77.5716 6.152 76.377 6.152H72.401C71.2063 6.152 70.3663 6.41334 69.881 6.936C69.3956 7.42134 69.153 8.26134 69.153 9.456V26.536C69.153 27.7307 69.3956 28.5893 69.881 29.112C70.3663 29.5973 71.2063 29.84 72.401 29.84ZM77.553 36H71.281C68.3316 36 66.0543 35.216 64.449 33.648C62.8436 32.08 62.041 29.8213 62.041 26.872V9.12C62.041 6.17067 62.8436 3.912 64.449 2.344C66.0543 0.776005 68.3316 -0.00799561 71.281 -0.00799561H77.553C80.5023 -0.00799561 82.7796 0.776005 84.385 2.344C85.9903 3.912 86.793 6.17067 86.793 9.12V26.872C86.793 29.8213 85.9903 32.08 84.385 33.648C82.7796 35.216 80.5023 36 77.553 36Z" fill="#FF7800"/>
<path d="M41.5025 29.84H45.4785C46.6732 29.84 47.5132 29.5973 47.9985 29.112C48.5212 28.5893 48.7825 27.7307 48.7825 26.536V9.456C48.7825 8.26134 48.5212 7.42134 47.9985 6.936C47.5132 6.41334 46.6732 6.152 45.4785 6.152H41.5025C40.3079 6.152 39.4679 6.41334 38.9825 6.936C38.4972 7.42134 38.2545 8.26134 38.2545 9.456V26.536C38.2545 27.7307 38.4972 28.5893 38.9825 29.112C39.4679 29.5973 40.3079 29.84 41.5025 29.84ZM46.6545 36H40.3825C37.4332 36 35.1558 35.216 33.5505 33.648C31.9452 32.08 31.1425 29.8213 31.1425 26.872V9.12C31.1425 6.17067 31.9452 3.912 33.5505 2.344C35.1558 0.776005 37.4332 -0.00799561 40.3825 -0.00799561H46.6545C49.6039 -0.00799561 51.8812 0.776005 53.4865 2.344C55.0918 3.912 55.8945 6.17067 55.8945 9.12V26.872C55.8945 29.8213 55.0918 32.08 53.4865 33.648C51.8812 35.216 49.6039 36 46.6545 36Z" fill="#FF7800"/>
<path d="M8.36801 30.064H14.64C15.872 30.064 16.7493 29.8213 17.272 29.336C17.832 28.8133 18.112 27.9733 18.112 26.816V23.568C18.112 22.4107 17.832 21.5893 17.272 21.104C16.712 20.6187 15.7973 20.376 14.528 20.376H8.36801C7.95735 20.376 7.75201 20.5813 7.75201 20.992V29.448C7.75201 29.8587 7.95735 30.064 8.36801 30.064ZM8.36801 14.608H14.08C15.2747 14.608 16.152 14.3653 16.712 13.88C17.272 13.3573 17.552 12.5173 17.552 11.36V9.176C17.552 8.01867 17.272 7.19734 16.712 6.712C16.1894 6.18934 15.3307 5.928 14.136 5.928H8.36801C7.95735 5.928 7.75201 6.13334 7.75201 6.544V13.992C7.75201 14.4027 7.95735 14.608 8.36801 14.608ZM0.640015 34.824V1.168C0.640015 0.384003 1.03201 -0.00799561 1.81601 -0.00799561H15.256C18.2053 -0.00799561 20.4827 0.776005 22.088 2.344C23.6934 3.912 24.496 6.152 24.496 9.064V11.36C24.496 14.5333 23.0214 16.5867 20.072 17.52C21.5654 17.744 22.76 18.36 23.656 19.368C24.552 20.3387 25 21.7387 25 23.568V26.928C25 29.84 24.1973 32.08 22.592 33.648C20.9867 35.216 18.728 36 15.816 36H1.81601C1.03201 36 0.640015 35.608 0.640015 34.824Z" fill="#FF7800"/>
</svg>
